<svg width="22" height="22" viewBox="0 0 22 22" fill="none" xmlns="http://www.w3.org/2000/svg">
<path fill-rule="evenodd" clip-rule="evenodd" d="M0.379053 21.6211C-0.126351 21.1156 -0.126351 20.2962 0.379053 19.7909L17.5816 2.58823H6.47059C5.75588 2.58823 5.17648 2.00883 5.17648 1.29412C5.17648 0.579402 5.75588 0 6.47059 0H20.7059C21.0491 0 21.3783 0.136348 21.6211 0.379047C21.8636 0.621746 22 0.950891 22 1.29412V15.5294C22 16.2441 21.4205 16.8235 20.7059 16.8235C19.9913 16.8235 19.4118 16.2441 19.4118 15.5294V4.4184L2.20919 21.6211C1.70382 22.1263 0.884432 22.1263 0.379053 21.6211Z" fill="black"/>
</svg>