<svg width="39" height="38" viewBox="0 0 39 38" fill="none" xmlns="http://www.w3.org/2000/svg">
<path d="M32.2461 5.87953C31.8781 6.90583 31.6836 7.92913 31.6687 8.95843C31.6537 9.98772 31.8153 11.017 32.1564 12.0523L32.2761 12.4083L31.92 12.2887C30.9057 11.9506 29.8854 11.786 28.8591 11.798C27.8298 11.8129 26.7945 12.0044 25.7472 12.3754L25.3732 12.5071L25.5079 12.1331C25.8759 11.1098 26.0704 10.0835 26.0854 9.05417C26.1003 8.02488 25.9387 6.99559 25.5976 5.96032L25.4809 5.60425L25.837 5.72394C26.8513 6.06205 27.8717 6.22661 28.898 6.21465C29.9242 6.19969 30.9625 6.00819 32.0068 5.63717L32.3808 5.50551L32.2461 5.87953ZM37.6439 19.0868C36.6595 19.5506 35.7978 20.14 35.0587 20.8551C34.3197 21.5702 33.7063 22.414 33.2156 23.3865L33.048 23.7216L32.8805 23.3865C32.4047 22.429 31.7973 21.5942 31.0613 20.8761C30.3222 20.158 29.4545 19.5625 28.4521 19.0868L28.0931 18.9162L28.4521 18.7487C29.4365 18.2849 30.2983 17.6954 31.0373 16.9803C31.7764 16.2652 32.3898 15.4214 32.8805 14.446L33.048 14.1109L33.2156 14.446C33.6943 15.4035 34.2987 16.2413 35.0348 16.9564C35.7709 17.6745 36.6386 18.2699 37.6439 18.7487L38.003 18.9192L37.6439 19.0898V19.0868ZM31.7854 28.892C31.8003 29.9183 31.9918 30.9565 32.3628 32.0008L32.4945 32.3748L32.1205 32.2402C31.0942 31.8721 30.0709 31.6776 29.0416 31.6627C28.0123 31.6477 26.983 31.8093 25.9477 32.1504L25.5917 32.2701L25.7113 31.914C26.0494 30.8997 26.214 29.8794 26.202 28.8531C26.1871 27.8238 25.9956 26.7885 25.6246 25.7413L25.4929 25.3672L25.8669 25.5019C26.8902 25.8699 27.9165 26.0644 28.9458 26.0794C29.9751 26.0943 31.0044 25.9328 32.0397 25.5917L32.3957 25.475L32.2761 25.831C31.938 26.8454 31.7734 27.8657 31.7854 28.892ZM23.557 33.2126C22.5995 33.6913 21.7617 34.2957 21.0466 35.0318C20.3285 35.7679 19.7331 36.6356 19.2573 37.6409L19.0868 38L18.9162 37.6409C18.4524 36.6565 17.863 35.7948 17.1479 35.0557C16.4328 34.3167 15.589 33.7033 14.6165 33.2126L14.2814 33.045L14.6165 32.8775C15.574 32.4017 16.4088 31.7943 17.1269 31.0583C17.845 30.3222 18.4405 29.4515 18.9162 28.4491L19.0868 28.0901L19.2573 28.4491C19.7211 29.4335 20.3076 30.2953 21.0257 31.0343C21.7408 31.7734 22.5846 32.3868 23.56 32.8775L23.8951 33.045L23.56 33.2126H23.557ZM12.4981 25.8609C12.1301 26.8843 11.9356 27.9106 11.9206 28.9398C11.9057 29.9691 12.0672 30.9984 12.4083 32.0337L12.525 32.3898L12.169 32.2701C11.1546 31.932 10.1343 31.7674 9.10803 31.7794C8.08173 31.7943 7.04346 31.9858 5.99921 32.3568L5.6252 32.4885L5.75984 32.1145C6.12787 31.0882 6.32236 30.0649 6.33732 29.0356C6.35228 28.0063 6.19071 26.977 5.84961 25.9417L5.72992 25.5857L6.08598 25.7054C7.10031 26.0435 8.12063 26.208 9.14693 26.1961C10.1762 26.1811 11.2115 25.9896 12.2587 25.6186L12.6328 25.4869L12.4981 25.8609ZM9.55087 19.2543C8.56646 19.7181 7.70472 20.3046 6.96567 21.0227C6.22661 21.7408 5.61323 22.5816 5.12252 23.557L4.95496 23.8921L4.7874 23.557C4.30866 22.5995 3.70425 21.7617 2.96819 21.0466C2.23213 20.3285 1.36441 19.7331 0.359055 19.2573L0 19.0868L0.359055 18.9162C1.34346 18.4524 2.2052 17.863 2.94425 17.1479C3.68331 16.4298 4.29669 15.589 4.7874 14.6135L4.95496 14.2784L5.12252 14.6135C5.59827 15.571 6.20567 16.4058 6.94173 17.1239C7.67779 17.842 8.5485 18.4375 9.55087 18.9132L9.90992 19.0838L9.55087 19.2543ZM11.8009 9.14693C11.8159 10.1762 12.0074 11.2115 12.3784 12.2587L12.5101 12.6328L12.1361 12.4981C11.1128 12.1301 10.0865 11.9356 9.05717 11.9206C8.02787 11.9057 6.99858 12.0672 5.96331 12.4083L5.60724 12.525L5.72693 12.169C6.06504 11.1546 6.22961 10.1343 6.21764 9.10803C6.20268 8.08173 6.01118 7.04346 5.64016 5.99921L5.5085 5.6252L5.88252 5.75984C6.90882 6.12787 7.93213 6.32236 8.96142 6.33732C9.99071 6.35228 11.02 6.19071 12.0553 5.84961L12.4113 5.72992L12.2917 6.08598C11.9535 7.10032 11.789 8.12063 11.8009 9.14693ZM23.3865 5.12252C22.429 5.59827 21.5942 6.20567 20.8761 6.94173C20.158 7.68079 19.5625 8.5485 19.0868 9.55087L18.9162 9.90992L18.7457 9.55087C18.2819 8.56646 17.6954 7.70472 16.9773 6.96567C16.2592 6.22661 15.4184 5.61323 14.443 5.12252L14.1079 4.95496L14.443 4.7874C15.4005 4.30866 16.2383 3.70425 16.9534 2.96819C17.6715 2.23213 18.2669 1.36441 18.7427 0.359055L18.9132 0L19.0838 0.359055C19.5476 1.34346 20.137 2.2052 20.8521 2.94425C21.5702 3.68331 22.411 4.29669 23.3865 4.7874L23.7216 4.95496L23.3865 5.12252Z" fill="#F8AFA6"/>
</svg>