<svg width="15" height="15" viewBox="0 0 15 15" fill="none" xmlns="http://www.w3.org/2000/svg">
<path fill-rule="evenodd" clip-rule="evenodd" d="M0.258446 14.7416C-0.0861485 14.397 -0.0861485 13.8383 0.258446 13.4938L11.9875 1.76471H4.41177C3.92446 1.76471 3.52941 1.36966 3.52941 0.882353C3.52941 0.395047 3.92446 0 4.41177 0H14.1176C14.3516 0 14.5761 0.0929648 14.7416 0.258441C14.907 0.423918 15 0.648335 15 0.882353V10.5882C15 11.0756 14.6049 11.4706 14.1176 11.4706C13.6304 11.4706 13.2353 11.0756 13.2353 10.5882V3.01255L1.50627 14.7416C1.16169 15.0861 0.603022 15.0861 0.258446 14.7416Z" fill="black"/>
</svg>
